<svg width="97" height="93" viewBox="0 0 97 93" fill="none" xmlns="http://www.w3.org/2000/svg">
<path fill-rule="evenodd" clip-rule="evenodd" d="M73.7285 11.5671C75.9129 17.0896 72.0157 32.2766 38.0508 32.2766C5.28564 32.2766 -0.782006 22.1519 0.916931 15.0186C0.188819 17.7799 -0.102421 26.0637 4.55752 37.1088C9.08346 47.8362 11.8511 50.2285 13.885 53.6764C14.4688 54.666 14.9921 55.7425 15.4793 57.128C17.6636 63.3408 17.6636 68.8634 19.848 73.0053C22.0323 77.1472 32.2259 80.5987 40.2352 79.9084C48.2445 79.2181 59.1662 74.3859 59.8943 73.0053C60.6224 71.6246 59.8943 68.173 62.0787 61.9602C63.8392 56.9527 74.641 55.767 81.0097 54.5837C82.5427 54.2989 83.8189 54.0142 84.6503 53.6764C89.7471 51.6054 94.8439 48.8442 96.3001 42.6313C98.824 31.8634 76.6616 26.0907 73.9903 28.3024C73.8415 29.2935 73.7285 29.6098 73.7285 28.825C73.7285 28.6177 73.8196 28.4438 73.9903 28.3024C74.496 24.9352 75.4162 13.7796 73.7285 11.5671ZM70.8161 48.8442C69.8919 48.6251 70.0827 47.3127 70.8161 45.579C71.9315 42.9419 74.3021 39.3301 75.9129 37.1088C76.641 36.4185 79.4078 35.452 84.6503 37.1088C91.2033 39.1797 91.2033 42.6313 89.7471 44.7023C88.2908 46.7732 84.6503 48.8442 83.194 48.8442C82.4486 48.8442 79.9861 49.0251 77.3691 49.109C74.8736 49.1891 72.2377 49.1811 70.8161 48.8442Z" fill="#D9D9D9"/>
<path d="M19.848 73.0053C17.6636 68.8634 17.6636 63.3408 15.4793 57.128C14.9921 55.7425 14.4688 54.666 13.885 53.6764C9.07693 57.8183 -0.248063 67.4827 0.916931 73.0053C2.37317 79.9084 2.37317 79.2181 6.01375 82.6697C9.65433 86.1213 36.5946 93.7148 51.1569 92.3341C65.7193 90.9535 77.3691 86.8116 81.0097 84.7407C84.6503 82.6697 89.019 65.4118 86.8346 61.9602C85.0871 59.1989 82.2232 55.892 81.0097 54.5837C74.641 55.767 63.8392 56.9527 62.0787 61.9602C59.8943 68.173 60.6224 71.6246 59.8943 73.0053C59.1662 74.3859 48.2445 79.2181 40.2352 79.9084C32.2259 80.5987 22.0323 77.1472 19.848 73.0053Z" fill="#AFAFAF"/>
<path fill-rule="evenodd" clip-rule="evenodd" d="M0.916931 15.0186C3.82939 9.95632 15.0424 -0.0302705 36.5946 0.521983C58.1468 1.07424 70.8161 5.3542 73.7285 11.5671C75.9129 17.0896 72.0157 32.2766 38.0508 32.2766C5.28564 32.2766 -0.782006 22.1519 0.916931 15.0186ZM23.7258 15.0186C23.7258 19.1488 32.305 24.213 36.5946 26.2288C39.0147 21.3416 43.1309 11.2248 40.2352 9.85592C37.3395 8.48702 34.2159 10.4263 33.0161 11.5671C29.9194 10.9967 23.7258 10.8885 23.7258 15.0186Z" fill="#583925"/>
<path d="M36.5946 26.2288C32.305 24.213 23.7258 19.1488 23.7258 15.0186C23.7258 10.8885 29.9194 10.9967 33.0161 11.5671C34.2159 10.4263 37.3395 8.48702 40.2352 9.85592C43.1309 11.2248 39.0147 21.3416 36.5946 26.2288Z" fill="#DBB8A1"/>
<path d="M0.916931 15.0186C3.82939 9.95632 15.0424 -0.0302705 36.5946 0.521983C58.1468 1.07424 70.8161 5.3542 73.7285 11.5671M0.916931 15.0186C-0.782006 22.1519 5.28564 32.2766 38.0508 32.2766C72.0157 32.2766 75.9129 17.0896 73.7285 11.5671M0.916931 15.0186C0.188819 17.7799 -0.102421 26.0637 4.55752 37.1088C9.08346 47.8362 11.8511 50.2285 13.885 53.6764M73.7285 11.5671C75.4162 13.7796 74.496 24.9352 73.9903 28.3024M73.9903 28.3024C76.6616 26.0907 98.824 31.8634 96.3001 42.6313C94.8439 48.8442 89.7471 51.6054 84.6503 53.6764C83.8189 54.0142 82.5427 54.2989 81.0097 54.5837M73.9903 28.3024C73.8415 29.2935 73.7285 29.6098 73.7285 28.825C73.7285 28.6177 73.8196 28.4438 73.9903 28.3024ZM13.885 53.6764C14.4688 54.666 14.9921 55.7425 15.4793 57.128C17.6636 63.3408 17.6636 68.8634 19.848 73.0053C22.0323 77.1472 32.2259 80.5987 40.2352 79.9084C48.2445 79.2181 59.1662 74.3859 59.8943 73.0053C60.6224 71.6246 59.8943 68.173 62.0787 61.9602C63.8392 56.9527 74.641 55.767 81.0097 54.5837M13.885 53.6764C9.07693 57.8183 -0.248063 67.4827 0.916931 73.0053C2.37317 79.9084 2.37317 79.2181 6.01375 82.6697C9.65433 86.1213 36.5946 93.7148 51.1569 92.3341C65.7193 90.9535 77.3691 86.8116 81.0097 84.7407C84.6503 82.6697 89.019 65.4118 86.8346 61.9602C85.0871 59.1989 82.2232 55.892 81.0097 54.5837M70.8161 45.579C71.9315 42.9419 74.3021 39.3301 75.9129 37.1088C76.641 36.4185 79.4078 35.452 84.6503 37.1088C91.2033 39.1797 91.2033 42.6313 89.7471 44.7023C88.2908 46.7732 84.6503 48.8442 83.194 48.8442C82.4486 48.8442 79.9861 49.0251 77.3691 49.109M70.8161 45.579C70.0827 47.3127 69.8919 48.6251 70.8161 48.8442C72.2377 49.1811 74.8736 49.1891 77.3691 49.109M70.8161 45.579L77.3691 49.109M36.5946 26.2288C32.305 24.213 23.7258 19.1488 23.7258 15.0186C23.7258 10.8885 29.9194 10.9967 33.0161 11.5671C34.2159 10.4263 37.3395 8.48702 40.2352 9.85592C43.1309 11.2248 39.0147 21.3416 36.5946 26.2288Z" stroke="black"/>
</svg>
