<svg width="94" height="82" viewBox="0 0 94 82" fill="none" xmlns="http://www.w3.org/2000/svg">
<path fill-rule="evenodd" clip-rule="evenodd" d="M52.8386 49.4195C58.2753 52.2353 71.2762 54.312 79.7861 40.0926C90.4234 22.3182 86.7541 13.9201 79.666 9.49097C72.5779 5.06185 60.5577 6.27265 52.7185 18.8179C44.8794 31.3632 42.8217 41.4159 52.8386 49.4195ZM76.3344 14.8227C77.5015 14.1565 77.7353 13.0815 77.7062 12.6273C76.4105 10.9455 74.3636 12.7191 72.5671 13.3409C70.7706 13.9627 72.9918 14.9145 72.0119 16.4827C71.032 18.0508 68.0379 23.5935 67.929 25.2698C67.8201 26.9462 65.4901 27.6707 64.3687 28.7143C63.2473 29.7579 62.9424 31.7479 60.9826 34.8842C59.0228 38.0206 55.4843 38.426 52.9038 40.3023C50.3234 42.1786 51.1945 42.2868 51.6191 43.8605C51.9588 45.1194 54.3883 47.1899 55.5606 48.0677C55.0815 47.3323 54.0101 45.4417 53.5572 43.7632C52.991 41.665 56.192 41.0487 59.393 40.4324C62.5941 39.816 63.9006 33.2188 66.7314 30.1907C69.5622 27.1626 69.0831 26.4271 70.5639 22.5553C72.0446 18.6836 74.8754 15.6554 76.3344 14.8227Z" fill="#462E1F"/>
<path d="M77.7062 12.6273C77.7353 13.0815 77.5015 14.1565 76.3344 14.8227C74.8754 15.6554 72.0446 18.6836 70.5639 22.5553C69.0831 26.4271 69.5622 27.1626 66.7314 30.1907C63.9006 33.2188 62.5941 39.816 59.393 40.4324C56.192 41.0487 52.991 41.665 53.5572 43.7632C54.0101 45.4417 55.0815 47.3323 55.5606 48.0677C54.3883 47.1899 51.9588 45.1194 51.6191 43.8605C51.1945 42.2868 50.3234 42.1786 52.9038 40.3023C55.4843 38.426 59.0228 38.0206 60.9826 34.8842C62.9424 31.7479 63.2473 29.7579 64.3687 28.7143C65.4901 27.6707 67.8201 26.9462 67.929 25.2698C68.0379 23.5935 71.032 18.0508 72.0119 16.4827C72.9918 14.9145 70.7706 13.9627 72.5671 13.3409C74.3636 12.7191 76.4105 10.9455 77.7062 12.6273Z" fill="#57483E"/>
<path fill-rule="evenodd" clip-rule="evenodd" d="M52.8386 49.4195C58.2753 52.2353 71.2762 54.312 79.7861 40.0926C90.4234 22.3182 86.7541 13.9201 79.666 9.49097C72.5779 5.06185 60.5577 6.27265 52.7185 18.8179C44.8794 31.3632 42.8217 41.4159 52.8386 49.4195ZM76.3344 14.8227C77.5015 14.1565 77.7353 13.0815 77.7062 12.6273C76.4105 10.9455 74.3636 12.7191 72.5671 13.3409C70.7706 13.9627 72.9918 14.9145 72.0119 16.4827C71.032 18.0508 68.0379 23.5935 67.929 25.2698C67.8201 26.9462 65.4901 27.6707 64.3687 28.7143C63.2473 29.7579 62.9424 31.7479 60.9826 34.8842C59.0228 38.0206 55.4843 38.426 52.9038 40.3023C50.3234 42.1786 51.1945 42.2868 51.6191 43.8605C51.9588 45.1194 54.3883 47.1899 55.5606 48.0677C55.0815 47.3323 54.0101 45.4417 53.5572 43.7632C52.991 41.665 56.192 41.0487 59.393 40.4324C62.5941 39.816 63.9006 33.2188 66.7314 30.1907C69.5622 27.1626 69.0831 26.4271 70.5639 22.5553C72.0446 18.6836 74.8754 15.6554 76.3344 14.8227Z" stroke="black"/>
<path d="M77.7062 12.6273C77.7353 13.0815 77.5015 14.1565 76.3344 14.8227C74.8754 15.6554 72.0446 18.6836 70.5639 22.5553C69.0831 26.4271 69.5622 27.1626 66.7314 30.1907C63.9006 33.2188 62.5941 39.816 59.393 40.4324C56.192 41.0487 52.991 41.665 53.5572 43.7632C54.0101 45.4417 55.0815 47.3323 55.5606 48.0677C54.3883 47.1899 51.9588 45.1194 51.6191 43.8605C51.1945 42.2868 50.3234 42.1786 52.9038 40.3023C55.4843 38.426 59.0228 38.0206 60.9826 34.8842C62.9424 31.7479 63.2473 29.7579 64.3687 28.7143C65.4901 27.6707 67.8201 26.9462 67.929 25.2698C68.0379 23.5935 71.032 18.0508 72.0119 16.4827C72.9918 14.9145 70.7706 13.9627 72.5671 13.3409C74.3636 12.7191 76.4105 10.9455 77.7062 12.6273Z" stroke="black"/>
<path fill-rule="evenodd" clip-rule="evenodd" d="M63.365 64.728C57.7396 69.9793 42.394 76.6606 26.0152 61.3748C5.54175 42.2676 6.69647 30.5238 13.7223 22.7208C20.7482 14.9177 36.2092 12.6913 51.0721 26.0739C65.935 39.4565 72.5848 51.4994 63.365 64.728ZM20.0391 28.4084C18.3147 27.9323 17.5866 26.6487 17.4381 26.0664C18.3677 23.5394 21.6379 25.1382 24.1279 25.3618C26.6179 25.5853 24.2389 27.4802 26.0968 29.153C27.9546 30.8258 33.9368 36.885 34.7539 38.9664C35.5711 41.0478 38.7672 41.2344 40.5881 42.2011C42.4089 43.1678 43.5977 45.5837 47.3134 48.9294C51.0291 52.275 55.6005 51.6814 59.5768 53.2432C63.5531 54.805 62.5124 55.2136 62.6234 57.332C62.7122 59.0267 60.5286 62.3983 59.4257 63.8723C59.7233 62.7946 60.2888 60.0743 60.1704 57.8146C60.0224 54.9901 55.7855 55.2121 51.5487 55.4341C47.3119 55.6562 43.0025 47.7391 38.2461 44.8021C33.4897 41.865 33.7873 40.7873 30.3691 36.3639C26.9509 31.9406 22.1945 29.0035 20.0391 28.4084Z" fill="#462E1F"/>
<path d="M17.4381 26.0664C17.5866 26.6487 18.3147 27.9323 20.0391 28.4084C22.1945 29.0035 26.9509 31.9406 30.3691 36.3639C33.7873 40.7873 33.4897 41.865 38.2461 44.8021C43.0025 47.7391 47.3119 55.6562 51.5487 55.4341C55.7855 55.2121 60.0224 54.9901 60.1704 57.8146C60.2888 60.0743 59.7233 62.7946 59.4257 63.8723C60.5286 62.3983 62.7122 59.0267 62.6234 57.332C62.5124 55.2136 63.5531 54.805 59.5768 53.2432C55.6005 51.6814 51.0291 52.275 47.3134 48.9294C43.5977 45.5837 42.4089 43.1678 40.5881 42.2011C38.7672 41.2344 35.5711 41.0478 34.7539 38.9664C33.9368 36.885 27.9546 30.8258 26.0968 29.153C24.2389 27.4802 26.6179 25.5853 24.1279 25.3618C21.6379 25.1382 18.3677 23.5394 17.4381 26.0664Z" fill="#57483E"/>
<path fill-rule="evenodd" clip-rule="evenodd" d="M63.365 64.728C57.7396 69.9793 42.394 76.6606 26.0152 61.3748C5.54175 42.2676 6.69647 30.5238 13.7223 22.7208C20.7482 14.9177 36.2092 12.6913 51.0721 26.0739C65.935 39.4565 72.5848 51.4994 63.365 64.728ZM20.0391 28.4084C18.3147 27.9323 17.5866 26.6487 17.4381 26.0664C18.3677 23.5394 21.6379 25.1382 24.1279 25.3618C26.6179 25.5853 24.2389 27.4802 26.0968 29.153C27.9546 30.8258 33.9368 36.885 34.7539 38.9664C35.5711 41.0478 38.7672 41.2344 40.5881 42.2011C42.4089 43.1678 43.5977 45.5837 47.3134 48.9294C51.0291 52.275 55.6005 51.6814 59.5768 53.2432C63.5531 54.805 62.5124 55.2136 62.6234 57.332C62.7122 59.0267 60.5286 62.3983 59.4257 63.8723C59.7233 62.7946 60.2888 60.0743 60.1704 57.8146C60.0224 54.9901 55.7855 55.2121 51.5487 55.4341C47.3119 55.6562 43.0025 47.7391 38.2461 44.8021C33.4897 41.865 33.7873 40.7873 30.3691 36.3639C26.9509 31.9406 22.1945 29.0035 20.0391 28.4084Z" stroke="black"/>
<path d="M17.4381 26.0664C17.5866 26.6487 18.3147 27.9323 20.0391 28.4084C22.1945 29.0035 26.9509 31.9406 30.3691 36.3639C33.7873 40.7873 33.4897 41.865 38.2461 44.8021C43.0025 47.7391 47.3119 55.6562 51.5487 55.4341C55.7855 55.2121 60.0224 54.9901 60.1704 57.8146C60.2888 60.0743 59.7233 62.7946 59.4257 63.8723C60.5286 62.3983 62.7122 59.0267 62.6234 57.332C62.5124 55.2136 63.5531 54.805 59.5768 53.2432C55.6005 51.6814 51.0291 52.275 47.3134 48.9294C43.5977 45.5837 42.4089 43.1678 40.5881 42.2011C38.7672 41.2344 35.5711 41.0478 34.7539 38.9664C33.9368 36.885 27.9546 30.8258 26.0968 29.153C24.2389 27.4802 26.6179 25.5853 24.1279 25.3618C21.6379 25.1382 18.3677 23.5394 17.4381 26.0664Z" stroke="black"/>
</svg>
